default_states
version=1
nRows=4
nColumns=205
inDegrees=yes

# SIMM Motion File Header:
name default_states
datacolumns 205
datarows 4
otherdata 1
range 0.59624775 0.59820181
endheader
time	pelvis_tilt	pelvis_list	pelvis_rotation	pelvis_tx	pelvis_ty	pelvis_tz	hip_flexion_r	hip_adduction_r	hip_rotation_r	knee_angle_r	knee_angle_r_beta	ankle_angle_r	subtalar_angle_r	mtp_angle_r	hip_flexion_l	hip_adduction_l	hip_rotation_l	knee_angle_l	knee_angle_l_beta	ankle_angle_l	subtalar_angle_l	mtp_angle_l	lumbar_extension	lumbar_bending	lumbar_rotation	arm_flex_r	arm_add_r	arm_rot_r	elbow_flex_r	pro_sup_r	wrist_flex_r	wrist_dev_r	arm_flex_l	arm_add_l	arm_rot_l	elbow_flex_l	pro_sup_l	wrist_flex_l	wrist_dev_l	pelvis_tilt_u	pelvis_list_u	pelvis_rotation_u	pelvis_tx_u	pelvis_ty_u	pelvis_tz_u	hip_flexion_r_u	hip_adduction_r_u	hip_rotation_r_u	knee_angle_r_u	knee_angle_r_beta_u	ankle_angle_r_u	subtalar_angle_r_u	mtp_angle_r_u	hip_flexion_l_u	hip_adduction_l_u	hip_rotation_l_u	knee_angle_l_u	knee_angle_l_beta_u	ankle_angle_l_u	subtalar_angle_l_u	mtp_angle_l_u	lumbar_extension_u	lumbar_bending_u	lumbar_rotation_u	arm_flex_r_u	arm_add_r_u	arm_rot_r_u	elbow_flex_r_u	pro_sup_r_u	wrist_flex_r_u	wrist_dev_r_u	arm_flex_l_u	arm_add_l_u	arm_rot_l_u	elbow_flex_l_u	pro_sup_l_u	wrist_flex_l_u	wrist_dev_l_u	add_brev_r.activation	add_long_r.activation	add_long_r.fiber_length	add_mag3_r.activation	add_mag4_r.activation	add_mag4_r.fiber_length	add_mag2_r.activation	add_mag1_r.activation	bifemlh_r.activation	bifemlh_r.fiber_length	bifemsh_r.activation	ext_dig_r.activation	ext_dig_r.fiber_length	ext_hal_r.activation	ext_hal_r.fiber_length	flex_dig_r.activation	flex_dig_r.fiber_length	flex_hal_r.activation	flex_hal_r.fiber_length	lat_gas_r.activation	lat_gas_r.fiber_length	med_gas_r.activation	med_gas_r.fiber_length	glut_max1_r.activation	glut_max2_r.activation	glut_max3_r.activation	glut_med1_r.activation	glut_med2_r.activation	glut_med3_r.activation	glut_min1_r.activation	glut_min2_r.activation	glut_min3_r.activation	glut_min3_r.fiber_length	grac_r.activation	iliacus_r.activation	per_brev_r.activation	per_brev_r.fiber_length	per_long_r.activation	per_long_r.fiber_length	peri_r.activation	peri_r.fiber_length	psoas_r.activation	rect_fem_r.activation	rect_fem_r.fiber_length	sar_r.activation	semimem_r.activation	semimem_r.fiber_length	semiten_r.activation	semiten_r.fiber_length	soleus_r.activation	soleus_r.fiber_length	tfl_r.activation	tfl_r.fiber_length	tib_ant_r.activation	tib_ant_r.fiber_length	tib_post_r.activation	tib_post_r.fiber_length	vas_int_r.activation	vas_int_r.fiber_length	vas_lat_r.activation	vas_lat_r.fiber_length	vas_med_r.activation	vas_med_r.fiber_length	add_brev_l.activation	add_long_l.activation	add_long_l.fiber_length	add_mag3_l.activation	add_mag4_l.activation	add_mag4_l.fiber_length	add_mag2_l.activation	add_mag1_l.activation	bifemlh_l.activation	bifemlh_l.fiber_length	bifemsh_l.activation	ext_dig_l.activation	ext_dig_l.fiber_length	ext_hal_l.activation	ext_hal_l.fiber_length	flex_dig_l.activation	flex_dig_l.fiber_length	flex_hal_l.activation	flex_hal_l.fiber_length	lat_gas_l.activation	lat_gas_l.fiber_length	med_gas_l.activation	med_gas_l.fiber_length	glut_max1_l.activation	glut_max2_l.activation	glut_max3_l.activation	glut_med1_l.activation	glut_med2_l.activation	glut_med3_l.activation	glut_min1_l.activation	glut_min2_l.activation	glut_min3_l.activation	glut_min3_l.fiber_length	grac_l.activation	iliacus_l.activation	per_brev_l.activation	per_brev_l.fiber_length	per_long_l.activation	per_long_l.fiber_length	peri_l.activation	peri_l.fiber_length	psoas_l.activation	rect_fem_l.activation	rect_fem_l.fiber_length	sar_l.activation	semimem_l.activation	semimem_l.fiber_length	semiten_l.activation	semiten_l.fiber_length	soleus_l.activation	soleus_l.fiber_length	tfl_l.activation	tfl_l.fiber_length	tib_ant_l.activation	tib_ant_l.fiber_length	tib_post_l.activation	tib_post_l.fiber_length	vas_int_l.activation	vas_int_l.fiber_length	vas_lat_l.activation	vas_lat_l.fiber_length	vas_med_l.activation	vas_med_l.fiber_length
      0.59624775	     -6.99697075	      3.41230308	     -5.59601411	      0.14203610	      0.97490717	     -0.21103843	     24.53205773	     -4.43995555	     -1.51074627	     73.96540356	     73.96540356	    -22.22759798	      0.00000000	      0.00000000	     27.47974675	      3.64850261	     -3.25351703	     27.70503298	     27.70503298	     21.85289450	      0.00000000	     -0.00000000	     -8.71271693	     -6.95934004	      7.97175340	     -0.63155143	     -6.72389982	     -6.09805525	     37.01723406	     51.07049857	      0.00000000	      0.00000000	      7.57615117	    -12.42666059	      1.34416558	     40.48142912	     47.19161577	     -0.00000000	      0.00000000	     -0.99741307	    -12.26593434	    -13.16874577	      1.28157584	      0.17471109	      0.03795198	    199.01343581	     29.76114470	     17.79445440	    131.32141886	    131.32141886	    299.97822318	      0.00000000	      0.00000000	   -121.61635320	      3.90529200	     15.96376287	    -28.38605110	    -28.38605110	   1747.86250079	      0.00000000	     -0.00000000	     -6.01757703	     12.11593560	     -2.65885098	    -19.50264633	     -3.32635416	     10.56045749	    -23.92333084	     -3.56771401	      0.00000000	     -0.00000000	      9.64180364	     -2.13567331	      5.91760021	     64.59147135	      2.22828323	     -0.00000000	      0.00000000	      0.06514886	      0.23897704	      0.10718458	      0.02000000	      0.02000000	      0.16437861	      0.02000000	      0.02000000	      0.02000000	      0.07697060	      0.47233067	      0.37670131	      0.08615724	      0.02000000	      0.09982186	      0.02000000	      0.04555590	      0.02000000	      0.04925804	      0.02000000	      0.03274356	      0.02000000	      0.02220476	      0.02000000	      0.02000000	      0.02000000	      0.04137093	      0.02000000	      0.02000000	      0.09341296	      0.08058484	      0.05621149	      0.03758491	      0.21848505	      0.48829479	      0.02000000	      0.05190729	      0.02000000	      0.05691400	      0.07289580	      0.02398275	      0.52033735	      0.02000000	      0.10679921	      0.45516711	      0.12049947	      0.03696403	      0.07539310	      0.19255559	      0.02000000	      0.03820105	      0.18115499	      0.09408523	      0.57932688	      0.08684210	      0.02000000	      0.03938422	      0.02000000	      0.14131462	      0.02000000	      0.13826185	      0.02000000	      0.13600573	      0.02000000	      0.02000000	      0.09729507	      0.02000000	      0.04837084	      0.16220553	      0.02000000	      0.02000000	      0.02000000	      0.10934669	      0.02000000	      0.02000000	      0.06788440	      0.02000000	      0.07687502	      0.02000000	      0.05166253	      0.02000000	      0.05991401	      0.02000000	      0.08388749	      0.02000000	      0.07343356	      0.54581534	      0.67131718	      0.02000000	      0.99999788	      0.98770893	      0.54452611	      0.90992326	      0.77846887	      0.41130905	      0.04289349	      0.02000000	      0.25363339	      0.02000000	      0.05693615	      0.02000000	      0.06371256	      0.25130170	      0.02688844	      0.02000000	      0.07083236	      0.07274107	      0.02000000	      0.26066527	      0.06962305	      0.05608749	      0.23991958	      0.02000000	      0.06508692	      0.95410619	      0.07464509	      0.02000000	      0.06502054	      0.02000000	      0.04619846	      0.16649696	      0.10852838	      0.49123744	      0.10240378	      0.28362294	      0.10554433
      0.59689911	     -6.99765410	      3.40412011	     -5.60461420	      0.14287087	      0.97502071	     -0.21101350	     24.66146548	     -4.42024661	     -1.49917838	     74.05007843	     74.05007843	    -22.03068433	      0.00000000	      0.00000000	     27.40035225	      3.65096254	     -3.24302992	     27.68548730	     27.68548730	     23.00785184	      0.00000000	     -0.00000000	     -8.71657872	     -6.95123237	      7.97006949	     -0.64428475	     -6.72607476	     -6.09118811	     37.00166669	     51.06815787	      0.00000000	      0.00000000	      7.58233319	    -12.42807541	      1.34803386	     40.52367601	     47.19306493	     -0.00000000	      0.00000000	     -1.10757217	    -12.85644210	    -13.22617889	      1.28160813	      0.17391603	      0.03857144	    198.34336920	     30.74579360	     17.71393359	    128.67488162	    128.67488162	    304.61736636	      0.00000000	      0.00000000	   -122.14832722	      3.65363083	     16.24337302	    -31.65712725	    -31.65712725	   1798.10690694	      0.00000000	     -0.00000000	     -5.83519839	     12.77686239	     -2.52337355	    -19.59367886	     -3.35087224	     10.52513341	    -23.87950801	     -3.61886632	      0.00000000	     -0.00000000	      9.34167890	     -2.20904917	      5.96037649	     65.12709408	      2.22149017	     -0.00000000	      0.00000000	      0.06483606	      0.23724084	      0.10707752	      0.02000000	      0.02000000	      0.16448236	      0.02000000	      0.02000000	      0.02000000	      0.07703622	      0.47199977	      0.37059458	      0.08603921	      0.02000000	      0.09971807	      0.02000000	      0.04559656	      0.02000000	      0.04931997	      0.02000000	      0.03284211	      0.02000000	      0.02229099	      0.02000000	      0.02000000	      0.02000000	      0.04172814	      0.02000000	      0.02000000	      0.09287403	      0.07997585	      0.05586873	      0.03762393	      0.21781401	      0.48508470	      0.02000000	      0.05193662	      0.02000000	      0.05695152	      0.07237388	      0.02402658	      0.51692514	      0.02000000	      0.10677110	      0.45295050	      0.12253984	      0.03696619	      0.07636788	      0.19256261	      0.02000000	      0.03833648	      0.17914637	      0.09407769	      0.57192336	      0.08672945	      0.02000000	      0.03942742	      0.02000000	      0.14135657	      0.02000000	      0.13829937	      0.02000000	      0.13604266	      0.02000000	      0.02000000	      0.09735167	      0.02000000	      0.04810764	      0.16213534	      0.02000000	      0.02000000	      0.02000000	      0.10927494	      0.02000000	      0.02000000	      0.06767634	      0.02000000	      0.07664827	      0.02000000	      0.05173157	      0.02000000	      0.06008120	      0.02000000	      0.08445278	      0.02000000	      0.07396000	      0.54395468	      0.66950825	      0.02000000	      0.99999795	      0.98810632	      0.53974526	      0.91301130	      0.78115277	      0.40906846	      0.04288615	      0.02000000	      0.25031702	      0.02000000	      0.05702631	      0.02000000	      0.06384926	      0.24803128	      0.02689880	      0.02000000	      0.07033331	      0.07280883	      0.02000000	      0.25796605	      0.06964000	      0.05574601	      0.23985549	      0.02000000	      0.06554403	      0.95562742	      0.07467878	      0.02000000	      0.06481405	      0.02000000	      0.04629502	      0.16572395	      0.10852759	      0.48616882	      0.10241709	      0.27975198	      0.10554995
      0.59755046	     -6.99842250	      3.39555904	     -5.61322831	      0.14370564	      0.97513373	     -0.21098821	     24.79045036	     -4.39991503	     -1.48768490	     74.13302905	     74.13302905	    -21.83081568	      0.00000000	      0.00000000	     27.32064788	      3.65326887	     -3.23234812	     27.66376077	     27.66376077	     24.19485412	      0.00000000	     -0.00000000	     -8.72031200	     -6.94269748	      7.96845082	     -0.65707414	     -6.72826381	     -6.08434427	     36.98612243	     51.06578499	      0.00000000	     -0.00000000	      7.58832248	    -12.42953893	      1.35193061	     40.56626865	     47.19450986	     -0.00000000	      0.00000000	     -1.25894655	    -13.42750464	    -13.21113313	      1.28157526	      0.17308852	      0.03906454	    197.71530677	     31.67331762	     17.56532746	    126.02678970	    126.02678970	    309.04802409	      0.00000000	      0.00000000	   -122.56556506	      3.43285348	     16.56215414	    -35.07625182	    -35.07625182	   1846.25611998	      0.00000000	     -0.00000000	     -5.62278946	     13.42845416	     -2.45908194	    -19.67476917	     -3.36969598	     10.48890386	    -23.85236528	     -3.66652143	      0.00000000	     -0.00000000	      9.05003283	     -2.28522131	      6.00502085	     65.65308187	      2.21530912	     -0.00000000	      0.00000000	      0.06452654	      0.23553382	      0.10696981	      0.02000000	      0.02000000	      0.16458542	      0.02000000	      0.02000000	      0.02000000	      0.07710243	      0.47167545	      0.36464314	      0.08592375	      0.02000000	      0.09961230	      0.02000000	      0.04563782	      0.02000000	      0.04938281	      0.02000000	      0.03294378	      0.02000000	      0.02238041	      0.02000000	      0.02000000	      0.02000000	      0.04204600	      0.02000000	      0.02000000	      0.09234136	      0.07937385	      0.05552950	      0.03766322	      0.21715275	      0.48195033	      0.02000000	      0.05196636	      0.02000000	      0.05698964	      0.07185776	      0.02407066	      0.51359629	      0.02000000	      0.10674251	      0.45078211	      0.12438692	      0.03696966	      0.07724265	      0.19257230	      0.02000000	      0.03847420	      0.17717044	      0.09406983	      0.56473985	      0.08661759	      0.02000000	      0.03947125	      0.02000000	      0.14139762	      0.02000000	      0.13833608	      0.02000000	      0.13607880	      0.02000000	      0.02000000	      0.09740876	      0.02000000	      0.04784707	      0.16206483	      0.02000000	      0.02000000	      0.02000000	      0.10920392	      0.02000000	      0.02000000	      0.06746845	      0.02000000	      0.07642169	      0.02000000	      0.05179868	      0.02000000	      0.06024844	      0.02000000	      0.08501968	      0.02000000	      0.07448636	      0.54213728	      0.66774625	      0.02000000	      0.99999802	      0.98849075	      0.53509051	      0.91598636	      0.78372802	      0.40687470	      0.04287862	      0.02000000	      0.24706593	      0.02000000	      0.05711665	      0.02000000	      0.06398765	      0.24482488	      0.02690870	      0.02000000	      0.06983977	      0.07287525	      0.02000000	      0.25531754	      0.06965611	      0.05540805	      0.23979250	      0.02000000	      0.06599963	      0.95709656	      0.07471240	      0.02000000	      0.06460774	      0.02000000	      0.04639050	      0.16496148	      0.10852653	      0.48123088	      0.10243116	      0.27596231	      0.10555645
      0.59820181	     -6.99930344	      3.38663135	     -5.62180803	      0.14454037	      0.97524619	     -0.21096264	     24.91904026	     -4.37899728	     -1.47631140	     74.21425387	     74.21425387	    -21.62813461	      0.00000000	      0.00000000	     27.24071261	      3.65544012	     -3.22144504	     27.63976895	     27.63976895	     25.41253765	      0.00000000	     -0.00000000	     -8.72389690	     -6.93374002	      7.96685003	     -0.66991303	     -6.73046330	     -6.07752431	     36.97059045	     51.06338219	      0.00000000	     -0.00000000	      7.59412465	    -12.43105296	      1.35585706	     40.60920074	     47.19595096	     -0.00000000	      0.00000000	     -1.45338653	    -13.98275906	    -13.12005031	      1.28147304	      0.17222617	      0.03942840	    197.13081788	     32.54609998	     17.34495489	    123.37549868	    123.37549868	    313.24976076	      0.00000000	      0.00000000	   -122.85526798	      3.23805835	     16.92329695	    -38.60651098	    -38.60651098	   1892.31783643	      0.00000000	     -0.00000000	     -5.37947257	     14.07510186	     -2.46888700	    -19.74562170	     -3.38296756	     10.45181363	    -23.84174437	     -3.71076736	      0.00000000	     -0.00000000	      8.76720779	     -2.36407367	      6.05153990	     66.16940288	      2.20973570	     -0.00000000	     -0.00000000	      0.06422025	      0.23385536	      0.10686147	      0.02000000	      0.02000000	      0.16468784	      0.02000000	      0.02000000	      0.02000000	      0.07716923	      0.47135757	      0.35884136	      0.08581065	      0.02000000	      0.09950460	      0.02000000	      0.04567964	      0.02000000	      0.04944650	      0.02000000	      0.03304848	      0.02000000	      0.02247295	      0.02000000	      0.02000000	      0.02000000	      0.04232892	      0.02000000	      0.02000000	      0.09181485	      0.07877875	      0.05519378	      0.03770279	      0.21650109	      0.47888940	      0.02000000	      0.05199647	      0.02000000	      0.05702836	      0.07134737	      0.02411497	      0.51034823	      0.02000000	      0.10671343	      0.44866067	      0.12606036	      0.03697453	      0.07802803	      0.19258472	      0.02000000	      0.03861411	      0.17522648	      0.09406165	      0.55776738	      0.08650633	      0.02000000	      0.03951568	      0.02000000	      0.14143778	      0.02000000	      0.13837198	      0.02000000	      0.13611415	      0.02000000	      0.02000000	      0.09746626	      0.02000000	      0.04758909	      0.16199402	      0.02000000	      0.02000000	      0.02000000	      0.10913377	      0.02000000	      0.02000000	      0.06726074	      0.02000000	      0.07619529	      0.02000000	      0.05186344	      0.02000000	      0.06041513	      0.02000000	      0.08558637	      0.02000000	      0.07501088	      0.54036198	      0.66602978	      0.02000000	      0.99999808	      0.98886265	      0.53055749	      0.91885307	      0.78619949	      0.40472655	      0.04287090	      0.02000000	      0.24387834	      0.02000000	      0.05720683	      0.02000000	      0.06412732	      0.24168077	      0.02691816	      0.02000000	      0.06935166	      0.07294020	      0.02000000	      0.25271845	      0.06967149	      0.05507357	      0.23973081	      0.02000000	      0.06645367	      0.95851549	      0.07474594	      0.02000000	      0.06440161	      0.02000000	      0.04648443	      0.16420938	      0.10852509	      0.47641910	      0.10244587	      0.27225153	      0.10556371
